<svg width="1440" height="1098" viewBox="0 0 1440 1098" fill="none" xmlns="http://www.w3.org/2000/svg">
<g clip-path="url(#clip0)">
<rect width="1440" height="1098" fill="white"/>
<path d="M0 -4.94608C0 -4.94608 480.5 -71.6899 1440 -71.6899C1440 6.31 1440 1036.31 1440 1036.31C1440 1036.31 1127.5 1096.31 0 1096.31C3.05176e-05 832.31 0 -4.94608 0 -4.94608Z" fill="#F6F9FC"/>
<path d="M0 -4.94608C0 -4.94608 480.5 -71.6899 1440 -71.6899C1440 6.31 1440 1036.31 1440 1036.31C1440 1036.31 1127.5 1096.31 0 1096.31C3.05176e-05 832.31 0 -4.94608 0 -4.94608Z" fill="url(#paint0_linear)"/>
<g style="mix-blend-mode:multiply" opacity="0.5">
<circle cx="783.211" cy="152.508" r="14.5" transform="rotate(-85.0813 783.211 152.508)" stroke="#E3E5E8"/>
<circle cx="466.848" cy="364.431" r="14.5" transform="rotate(-85.0813 466.848 364.431)" stroke="#E3E5E8"/>
<circle cx="916.289" cy="312.404" r="14.5" transform="rotate(-85.0813 916.289 312.404)" stroke="#E3E5E8"/>
<circle cx="605.515" cy="80.0159" r="14.5" transform="rotate(-85.0813 605.515 80.0159)" stroke="#E3E5E8"/>
<circle cx="367.901" cy="-4.66914" r="14.5" transform="rotate(-85.0813 367.901 -4.66914)" stroke="#E3E5E8"/>
<circle cx="166.187" cy="79.1756" r="14.5" transform="rotate(-85.0813 166.187 79.1756)" stroke="#E3E5E8"/>
<path d="M906.343 302.16L791.964 164.07" stroke="#E3E5E8"/>
<path d="M769.457 146.927L616.784 89.0154" stroke="#E3E5E8"/>
<path d="M594.694 89.122L500.304 151.727" stroke="#E3E5E8"/>
<path d="M469.34 349.654L486.775 174.666" stroke="#E3E5E8"/>
<path d="M473.85 163.577L322.632 188.648" stroke="#E3E5E8"/>
<path d="M297.759 183.434L177.752 87.8296" stroke="#E3E5E8"/>
<path d="M480.18 148.522L375.925 7.06179" stroke="#E3E5E8"/>
<circle cx="488.203" cy="160.253" r="14.5" transform="rotate(-85.0813 488.203 160.253)" stroke="#E3E5E8"/>
<circle cx="308.346" cy="192.657" r="14.5" transform="rotate(-85.0813 308.346 192.657)" stroke="#E3E5E8"/>
</g>
<g style="mix-blend-mode:multiply" opacity="0.5">
<circle cx="1420.21" cy="656.487" r="14.5" transform="rotate(-75.9447 1420.21 656.487)" stroke="#E3E5E8"/>
<circle cx="1298.26" cy="517.716" r="14.5" transform="rotate(-75.9447 1298.26 517.716)" stroke="#E3E5E8"/>
<circle cx="1077.11" cy="396.374" r="14.5" transform="rotate(-75.9447 1077.11 396.374)" stroke="#E3E5E8"/>
<circle cx="864.643" cy="447.125" r="14.5" transform="rotate(-75.9447 864.643 447.125)" stroke="#E3E5E8"/>
<path d="M1466.43 780.696L1425.89 668.563" stroke="#E3E5E8"/>
<path d="M1410.51 645.812L1307.96 528.39" stroke="#E3E5E8"/>
<path d="M1088.76 386.919L1184.1 290.179" stroke="#E3E5E8"/>
<path d="M1286.13 524.988L1182.07 570.065" stroke="#E3E5E8"/>
<path d="M1155.15 581.275L1001.72 580.051" stroke="#E3E5E8"/>
<path d="M977.991 570.953L874.687 457.506" stroke="#E3E5E8"/>
<path d="M1163.64 565.45L1083.17 409.231" stroke="#E3E5E8"/>
<circle cx="1194.54" cy="281.451" r="14.5" transform="rotate(-75.9447 1194.54 281.451)" stroke="#E3E5E8"/>
<circle cx="1169.7" cy="578.307" r="14.5" transform="rotate(-75.9447 1169.7 578.307)" stroke="#E3E5E8"/>
<circle cx="986.978" cy="581.74" r="14.5" transform="rotate(-75.9447 986.978 581.74)" stroke="#E3E5E8"/>
</g>
<g style="mix-blend-mode:multiply" opacity="0.5">
<circle r="14.5" transform="matrix(0.924472 -0.381251 -0.381251 -0.924472 102.627 628.658)" stroke="#E3E5E8"/>
<circle r="14.5" transform="matrix(0.924472 -0.381251 -0.381251 -0.924472 254.818 829.829)" stroke="#E3E5E8"/>
<path d="M-40.4222 536.213L90.6559 620.614" stroke="#E3E5E8"/>
<path d="M262.48 816.933L344.337 708.538" stroke="#E3E5E8"/>
<path d="M97.1943 641.715L67.7184 751.224" stroke="#E3E5E8"/>
<path d="M60.5394 779.489L84.0473 931.111" stroke="#E3E5E8"/>
<path d="M96.4964 953.267L223.752 1038.99" stroke="#E3E5E8"/>
<path d="M74.9621 768.789L241.217 825.702" stroke="#E3E5E8"/>
<circle r="14.5" transform="matrix(0.924472 -0.381251 -0.381251 -0.924472 351.456 696.949)" stroke="#E3E5E8"/>
<circle r="14.5" transform="matrix(0.924472 -0.381251 -0.381251 -0.924472 61.3617 764.662)" stroke="#E3E5E8"/>
<circle r="14.5" transform="matrix(0.924472 -0.381251 -0.381251 -0.924472 84.5182 945.942)" stroke="#E3E5E8"/>
</g>
</g>
<defs>
<linearGradient id="paint0_linear" x1="565" y1="354.81" x2="690.5" y2="1177.81" gradientUnits="userSpaceOnUse">
<stop stop-color="#F6F9FC"/>
<stop offset="1" stop-color="#E8EAED"/>
</linearGradient>
<clipPath id="clip0">
<rect width="1440" height="1098" fill="white"/>
</clipPath>
</defs>
</svg>
